<?xml version="1.0" encoding="UTF-8" standalone="no"?>
<svg
   width="96"
   height="96"
   version="1.1"
   id="svg1"
   sodipodi:docname="img_github_mark_white.svg"
   inkscape:version="1.4.3 (0d15f75, 2025-12-25)"
   xml:space="preserve"
   xmlns:inkscape="http://www.inkscape.org/namespaces/inkscape"
   xmlns:sodipodi="http://sodipodi.sourceforge.net/DTD/sodipodi-0.dtd"
   xmlns="http://www.w3.org/2000/svg"
   xmlns:svg="http://www.w3.org/2000/svg"><defs
     id="defs1"><inkscape:path-effect
       effect="fillet_chamfer"
       id="path-effect4"
       is_visible="true"
       lpeversion="1"
       nodesatellites_param="F,0,0,1,0,0,0,1 @ F,0,0,1,0,0,0,1 @ F,0,0,1,0,0,0,1 @ F,0,0,1,0,6.1287087,0,1"
       radius="0"
       unit="px"
       method="auto"
       mode="F"
       chamfer_steps="1"
       flexible="false"
       use_knot_distance="true"
       apply_no_radius="true"
       apply_with_radius="true"
       only_selected="false"
       hide_knots="false" /><inkscape:path-effect
       effect="fillet_chamfer"
       id="path-effect3"
       is_visible="true"
       lpeversion="1"
       nodesatellites_param="F,0,0,1,0,10,0,1 @ F,0,0,1,0,0,0,1 @ F,0,0,1,0,0,0,1 @ F,0,0,1,0,0,0,1"
       radius="21"
       unit="px"
       method="auto"
       mode="F"
       chamfer_steps="1"
       flexible="false"
       use_knot_distance="false"
       apply_no_radius="false"
       apply_with_radius="false"
       only_selected="true"
       hide_knots="false" /><inkscape:path-effect
       effect="fillet_chamfer"
       id="path-effect2"
       is_visible="true"
       lpeversion="1"
       nodesatellites_param="F,0,0,1,0,0,0,1 @ F,0,0,1,0,10,0,1 @ F,0,0,1,0,0,0,1 @ F,0,0,1,0,0,0,1"
       radius="0"
       unit="px"
       method="auto"
       mode="F"
       chamfer_steps="1"
       flexible="false"
       use_knot_distance="true"
       apply_no_radius="true"
       apply_with_radius="true"
       only_selected="true"
       hide_knots="false" /><inkscape:path-effect
       effect="fillet_chamfer"
       id="path-effect1"
       is_visible="true"
       lpeversion="1"
       nodesatellites_param="F,0,0,1,0,0,0,1 @ F,0,0,1,0,0,0,1 @ F,0,0,1,0,10,0,1 @ F,0,0,1,0,0,0,1"
       radius="0"
       unit="px"
       method="auto"
       mode="F"
       chamfer_steps="1"
       flexible="false"
       use_knot_distance="true"
       apply_no_radius="true"
       apply_with_radius="true"
       only_selected="false"
       hide_knots="false" /></defs><sodipodi:namedview
     id="namedview1"
     pagecolor="#ffffff"
     bordercolor="#000000"
     borderopacity="0.25"
     inkscape:showpageshadow="2"
     inkscape:pageopacity="0.0"
     inkscape:pagecheckerboard="true"
     inkscape:deskcolor="#d1d1d1"
     inkscape:zoom="4.2978834"
     inkscape:cx="6.9801801"
     inkscape:cy="37.111291"
     inkscape:window-width="1920"
     inkscape:window-height="1009"
     inkscape:window-x="-8"
     inkscape:window-y="1072"
     inkscape:window-maximized="1"
     inkscape:current-layer="svg1" /><path
     fill-rule="evenodd"
     clip-rule="evenodd"
     d="M 48.035581,5 C 24.238016,5 5,24.708251 5,49.090045 c 0,19.489668 12.32646,35.987266 29.426528,41.826284 2.137948,0.438956 2.92107,-0.948684 2.92107,-2.11595 0,-1.022142 -0.07047,-4.525731 -0.07047,-8.176237 -11.971459,2.628364 -14.46441,-5.255831 -14.46441,-5.255831 -1.923889,-5.109813 -4.774489,-6.4231 -4.774489,-6.4231 -3.918251,-2.700925 0.285413,-2.700925 0.285413,-2.700925 4.34637,0.29204 6.627024,4.52573 6.627024,4.52573 3.8469,6.715139 10.045806,4.817772 12.539639,3.64961 0.355884,-2.846947 1.496652,-4.817771 2.707892,-5.912474 -9.548095,-1.022143 -19.593901,-4.817772 -19.593901,-21.75343 0,-4.817772 1.708951,-8.759422 4.416843,-11.824952 -0.427238,-1.094704 -1.92389,-5.62133 0.428118,-11.679825 0,0 3.633721,-1.168162 11.826989,4.52573 a 41.375961,42.077116 0 0 1 10.759336,-1.460202 c 3.633719,0 7.337911,0.511519 10.758454,1.460202 8.194149,-5.693892 11.827869,-4.52573 11.827869,-4.52573 2.352008,6.058495 0.854475,10.585121 0.427238,11.679825 2.779245,3.06553 4.417722,7.00718 4.417722,11.824952 0,16.935658 -10.045804,20.65783 -19.665253,21.75343 1.568005,1.386743 2.921071,4.014212 2.921071,8.17534 0,5.912476 -0.07047,10.657684 -0.07047,12.116991 0,1.168162 0.784003,2.555802 2.92107,2.117741 C 78.673348,85.076416 90.999808,68.579713 90.999808,49.090045 91.070279,24.708251 71.761792,5 48.035581,5 Z"
     fill="#ffffff"
     id="path1"
     style="stroke-width:0.888335" /></svg>
