<?xml version="1.0" encoding="UTF-8" standalone="no"?>
<svg
   width="98"
   height="98"
   version="1.1"
   id="svg1"
   sodipodi:docname="windows-x64-mark-white.svg"
   inkscape:version="1.4.3 (0d15f75, 2025-12-25)"
   xmlns:inkscape="http://www.inkscape.org/namespaces/inkscape"
   xmlns:sodipodi="http://sodipodi.sourceforge.net/DTD/sodipodi-0.dtd"
   xmlns="http://www.w3.org/2000/svg"
   xmlns:svg="http://www.w3.org/2000/svg">
  <defs
     id="defs1">
    <inkscape:path-effect
       effect="fillet_chamfer"
       id="path-effect4"
       is_visible="true"
       lpeversion="1"
       nodesatellites_param="F,0,0,1,0,0,0,1 @ F,0,0,1,0,0,0,1 @ F,0,0,1,0,0,0,1 @ F,0,0,1,0,6.1287087,0,1"
       radius="0"
       unit="px"
       method="auto"
       mode="F"
       chamfer_steps="1"
       flexible="false"
       use_knot_distance="true"
       apply_no_radius="true"
       apply_with_radius="true"
       only_selected="false"
       hide_knots="false" />
    <inkscape:path-effect
       effect="fillet_chamfer"
       id="path-effect3"
       is_visible="true"
       lpeversion="1"
       nodesatellites_param="F,0,0,1,0,10,0,1 @ F,0,0,1,0,0,0,1 @ F,0,0,1,0,0,0,1 @ F,0,0,1,0,0,0,1"
       radius="21"
       unit="px"
       method="auto"
       mode="F"
       chamfer_steps="1"
       flexible="false"
       use_knot_distance="false"
       apply_no_radius="false"
       apply_with_radius="false"
       only_selected="true"
       hide_knots="false" />
    <inkscape:path-effect
       effect="fillet_chamfer"
       id="path-effect2"
       is_visible="true"
       lpeversion="1"
       nodesatellites_param="F,0,0,1,0,0,0,1 @ F,0,0,1,0,10,0,1 @ F,0,0,1,0,0,0,1 @ F,0,0,1,0,0,0,1"
       radius="0"
       unit="px"
       method="auto"
       mode="F"
       chamfer_steps="1"
       flexible="false"
       use_knot_distance="true"
       apply_no_radius="true"
       apply_with_radius="true"
       only_selected="true"
       hide_knots="false" />
    <inkscape:path-effect
       effect="fillet_chamfer"
       id="path-effect1"
       is_visible="true"
       lpeversion="1"
       nodesatellites_param="F,0,0,1,0,0,0,1 @ F,0,0,1,0,0,0,1 @ F,0,0,1,0,10,0,1 @ F,0,0,1,0,0,0,1"
       radius="0"
       unit="px"
       method="auto"
       mode="F"
       chamfer_steps="1"
       flexible="false"
       use_knot_distance="true"
       apply_no_radius="true"
       apply_with_radius="true"
       only_selected="false"
       hide_knots="false" />
  </defs>
  <sodipodi:namedview
     id="namedview1"
     pagecolor="#ffffff"
     bordercolor="#000000"
     borderopacity="0.25"
     inkscape:showpageshadow="2"
     inkscape:pageopacity="0.0"
     inkscape:pagecheckerboard="true"
     inkscape:deskcolor="#d1d1d1"
     inkscape:zoom="6.078125"
     inkscape:cx="34.303342"
     inkscape:cy="82.015424"
     inkscape:window-width="2560"
     inkscape:window-height="1369"
     inkscape:window-x="-8"
     inkscape:window-y="-8"
     inkscape:window-maximized="1"
     inkscape:current-layer="svg1" />
  <path
     style="fill:#ffffff;fill-opacity:1;stroke:none;stroke-width:1.04295"
     id="rect1"
     width="45"
     height="45"
     x="0"
     y="0"
     sodipodi:type="rect"
     d="M 10,0 H 45 V 45 H 0 V 10 A 10,10 135 0 1 10,0 Z"
     inkscape:path-effect="#path-effect3"
     transform="matrix(0.80747142,0,0,0.80747142,11.048843,11.048843)" />
  <path
     style="fill:#ffffff;fill-opacity:1;stroke:none;stroke-width:1.04295"
     id="rect1-2"
     width="45"
     height="45"
     x="53"
     y="0"
     inkscape:path-effect="#path-effect2"
     sodipodi:type="rect"
     d="M 53,0 H 88 A 10,10 45 0 1 98,10 V 45 H 53 Z"
     transform="matrix(0.80747142,0,0,0.80747142,7.8189575,11.048843)" />
  <path
     style="fill:#ffffff;fill-opacity:1;stroke:none;stroke-width:1.04295"
     id="rect1-1"
     width="45"
     height="45"
     x="0"
     y="53"
     inkscape:path-effect="#path-effect4"
     sodipodi:type="rect"
     d="M 0,53 H 45 V 98 H 6.1287087 A 6.1287087,6.1287087 45 0 1 0,91.871291 Z"
     transform="matrix(0.80747142,0,0,0.80747142,11.048843,7.8189575)" />
  <path
     id="rect1-2-6"
     style="fill:#ffffff;fill-opacity:1;stroke:none;stroke-width:0.842152"
     d="m 50.614943,50.614943 v 36.336214 h 28.2615 a 8.0747142,8.0747142 0 0 0 8.074714,-8.074714 v -28.2615 z m 14.512406,7.144229 h 5.980335 c 1.185974,0 1.778961,0.605604 1.778961,1.816811 v 4.176141 h -2.901851 v -3.456987 h -3.709322 v 5.942485 h 4.882679 c 1.185974,0 1.778961,0.592987 1.778961,1.778961 v 7.683595 c 0,1.202796 -0.592987,1.804194 -1.778961,1.804194 h -5.992952 c -1.194384,0 -1.791577,-0.601398 -1.791577,-1.804194 V 59.575983 c 0,-1.211207 0.584576,-1.816811 1.753727,-1.816811 z m 14.320001,0 h 3.002784 v 0.113551 l -4.60511,13.398979 h 3.179419 v -5.942485 h 2.813533 v 5.942485 h 1.501392 v 2.510731 h -1.501392 v 3.721939 h -2.813533 v -3.721939 h -6.485005 v -1.753727 z m -26.533006,7.002291 h 2.977551 l 1.387841,3.696706 1.450925,-3.696706 h 2.914467 v 0.05047 l -2.788299,6.106503 3.078484,6.585939 h -3.128951 l -1.526626,-3.999507 -1.577093,3.999507 h -3.078484 v -0.05047 l 3.078484,-6.510238 z m 13.361128,3.986891 v 6.220053 h 3.772406 v -6.220053 z" />
</svg>
